<svg width="200" height="150" viewBox="0 0 115 109" fill="none" xmlns="http://www.w3.org/2000/svg">
<rect x="0.5" y="0.5" width="114" height="108" rx="29.5" fill="white" stroke="#5B4132"/>
<path d="M34.5024 62.9784C35.0107 60.7605 29.6961 57.6497 22.6318 56.0303C15.5675 54.4109 9.42874 54.8961 8.92041 57.114C8.41208 59.3319 13.7267 62.4427 20.791 64.0621C27.8553 65.6815 33.9941 65.1964 34.5024 62.9784Z" fill="#FFB461"/>
<path d="M100.161 38.6531C98.5933 37.004 93.0641 39.7153 87.8115 44.709C82.5589 49.7026 79.5718 55.0875 81.1397 56.7366C82.7075 58.3856 88.2366 55.6743 93.4893 50.6807C98.7419 45.687 101.729 40.3021 100.161 38.6531Z" fill="#FFB461"/>
<path d="M57.4045 87.4218C72.2634 87.4218 84.309 75.375 84.309 60.5145C84.309 45.654 72.2634 33.6072 57.4045 33.6072C42.5455 33.6072 30.5 45.654 30.5 60.5145C30.5 75.375 42.5455 87.4218 57.4045 87.4218Z" fill="#FFB461"/>
<path d="M53.318 81.6318H45.1445V96.2776H53.318V81.6318Z" fill="#FFB461"/>
<path d="M69.6657 81.6318H61.4922V96.2776H69.6657V81.6318Z" fill="#FFB461"/>
<path d="M51.9558 99.002C55.7175 99.002 58.767 97.8583 58.767 96.4475C58.767 95.0367 55.7175 93.8931 51.9558 93.8931C48.194 93.8931 45.1445 95.0367 45.1445 96.4475C45.1445 97.8583 48.194 99.002 51.9558 99.002Z" fill="#FFB461"/>
<path d="M68.3035 98.6619C72.0652 98.6619 75.1147 97.5182 75.1147 96.1074C75.1147 94.6966 72.0652 93.553 68.3035 93.553C64.5417 93.553 61.4922 94.6966 61.4922 96.1074C61.4922 97.5182 64.5417 98.6619 68.3035 98.6619Z" fill="#FFB461"/>
<path d="M58.0858 62.8989C63.1642 62.8989 67.281 58.7817 67.281 53.7028C67.281 48.6239 63.1642 44.5066 58.0858 44.5066C53.0075 44.5066 48.8906 48.6239 48.8906 53.7028C48.8906 58.7817 53.0075 62.8989 58.0858 62.8989Z" fill="white"/>
<path d="M58.0866 56.7675C59.7794 56.7675 61.1516 55.3951 61.1516 53.7021C61.1516 52.0091 59.7794 50.6367 58.0866 50.6367C56.3938 50.6367 55.0215 52.0091 55.0215 53.7021C55.0215 55.3951 56.3938 56.7675 58.0866 56.7675Z" fill="#3F3D56"/>
<path d="M31.3079 35.4915C29.1355 25.7614 36.0798 15.9296 46.8185 13.5314C57.5572 11.1333 68.0237 17.0771 70.1962 26.8072C72.3686 36.5372 65.2517 40.1259 54.513 42.524C43.7743 44.922 33.4803 45.2216 31.3079 35.4915Z" fill="#FF5685"/>
<path d="M47.2695 68.2852C47.2695 70.8992 52.2854 76.0611 57.8512 76.0611C63.417 76.0611 68.6356 68.7017 68.6356 66.0877C68.6356 63.4736 63.417 66.5948 57.8512 66.5948C52.2854 66.5948 47.2695 65.6711 47.2695 68.2852Z" fill="white"/>
<path d="M66 83L71 83.4L70.0909 84.3L69.4091 85H66V83Z" fill="#FF5685"/>
<path d="M43.4844 83.4966L49.3985 83.0234V85.3891H45.1403L43.4844 83.4966Z" fill="#FF5685"/>
<rect x="49" y="81" width="17" height="4" fill="#FFC4C8"/>
<rect x="61" y="81" width="4" height="5" fill="#FFC4C8"/>
<path fill-rule="evenodd" clip-rule="evenodd" d="M53.0543 77.3908C51.8998 77.6265 50.8837 78.1138 50.1545 78.7813C49.4252 79.4487 49.021 80.2615 49.0009 81.1007L49 81.2193V82.75C49.0976 82.7496 49.1936 82.7636 49.288 82.7922C51.8751 83.5886 54.6718 84 57.4995 84C60.3273 84 63.1239 83.5886 65.711 82.7922C65.8021 82.7643 65.9006 82.7502 66 82.7507V81.1013C65.98 80.2622 65.5759 79.4495 64.8469 78.7821C64.1178 78.1146 63.1019 77.6273 61.9476 77.3914C61.6851 77.3315 60.8899 77.224 60.5254 77.1779C58.5232 76.9407 56.4777 76.9407 54.4756 77.1779C54.0931 77.228 53.2743 77.3413 53.0533 77.3914M55.6117 82.0957C55.519 82.0954 55.4271 82.1079 55.3413 82.1324C55.2555 82.157 55.1775 82.1931 55.1117 82.2387C55.0459 82.2843 54.9936 82.3385 54.9579 82.3982C54.9222 82.4579 54.9036 82.5219 54.9034 82.5866C54.9034 82.8574 55.2207 83.0775 55.6117 83.0775H59.3893C59.7802 83.0775 60.0976 82.8574 60.0976 82.5866C60.0973 82.5219 60.0788 82.4579 60.043 82.3982C60.0073 82.3385 59.955 82.2843 59.8893 82.2387C59.8235 82.1931 59.7455 82.157 59.6597 82.1324C59.5739 82.1079 59.482 82.0954 59.3893 82.0957H55.6117Z" fill="#FF5685"/>
<path d="M66 83.7387C65.1487 83.9297 64.283 84.0907 63.4028 84.2217V84.8217C63.4018 84.9208 63.3267 85.0157 63.194 85.0856C63.0613 85.1555 62.8817 85.1947 62.6944 85.1947C62.5074 85.1947 62.3279 85.1555 62.1952 85.0858C62.0625 85.016 61.9874 84.9212 61.9861 84.8222V84.4062C57.6303 84.8915 53.0981 84.6585 49 83.7387V84.5117C49.0024 85.0238 49.335 85.5201 49.9429 85.9185C50.5507 86.3168 51.3972 86.5933 52.3424 86.7022C55.7396 87.0993 59.2604 87.0993 62.6586 86.7022C63.6035 86.5932 64.4499 86.3167 65.0575 85.9183C65.6651 85.52 65.9976 85.0237 66 84.5117V83.7387Z" fill="#FF5685"/>
</svg>
