<svg width="24" height="25" viewBox="0 0 24 25" fill="none" xmlns="http://www.w3.org/2000/svg">
<path d="M15.5269 24.0003V14.316C15.5269 13.995 15.3993 13.687 15.1723 13.46C14.9453 13.233 14.6374 13.1055 14.3163 13.1055H9.47421C9.15315 13.1055 8.84525 13.233 8.61823 13.46C8.39121 13.687 8.26367 13.995 8.26367 14.316V24.0003" stroke="#5B4132" stroke-width="2" stroke-linecap="round" stroke-linejoin="round"/>
<path d="M1 10.6837C0.999916 10.3315 1.07667 9.98351 1.2249 9.66404C1.37314 9.34457 1.58929 9.06129 1.85827 8.83395L10.332 1.57195C10.769 1.20263 11.3227 1 11.8948 1C12.467 1 13.0206 1.20263 13.4576 1.57195L21.9314 8.83395C22.2004 9.06129 22.4165 9.34457 22.5647 9.66404C22.713 9.98351 22.7897 10.3315 22.7896 10.6837V21.5785C22.7896 22.2206 22.5346 22.8364 22.0805 23.2904C21.6265 23.7445 21.0107 23.9995 20.3686 23.9995H3.42107C2.77896 23.9995 2.16315 23.7445 1.70912 23.2904C1.25508 22.8364 1 22.2206 1 21.5785V10.6837Z" stroke="#5B4132" stroke-width="2" stroke-linecap="round" stroke-linejoin="round"/>
</svg>
