<svg width="191" height="30" viewBox="0 0 191 30" fill="none" xmlns="http://www.w3.org/2000/svg">
<path d="M17.1427 12.8913C17.2677 13.1794 17.3309 13.4735 17.3309 13.7732C17.3309 14.0148 17.2887 14.2574 17.2059 14.4993C17.0289 15.0406 16.6961 15.433 16.2081 15.6743C14.7511 16.4001 12.8384 17.3564 10.4668 18.5432C7.52371 20.0174 5.79778 20.8878 5.28871 21.1524C6.07865 22.2582 7.3106 22.8115 8.98526 22.8115C10.0971 22.8115 11.1062 22.4479 12.0109 21.7225C12.8949 21.0081 13.5132 20.0869 13.8678 18.9572C14.1687 18.0124 14.7718 17.5406 15.6766 17.5406C16.3215 17.5406 16.8362 17.8403 17.2203 18.4392C17.4594 18.8077 17.5791 19.1939 17.5791 19.5975C17.5791 19.8387 17.5369 20.0869 17.4551 20.3404C16.8411 22.3099 15.7643 23.9003 14.2259 25.1096C12.6653 26.3656 10.9187 26.9934 8.98491 26.9934C6.50908 26.9934 4.3931 26.0204 2.63558 24.073C0.87876 22.1264 0 19.7824 0 17.0401C0 14.2977 0.87876 11.9531 2.63558 10.0064C4.39345 8.0594 6.50943 7.08643 8.98491 7.08643C10.7726 7.08643 12.4055 7.62767 13.8825 8.71015C15.3493 9.76968 16.4363 11.1636 17.1427 12.8913ZM8.98561 11.3534C7.54969 11.3534 6.32827 11.9124 5.31996 13.03C4.32148 14.1476 3.82189 15.5005 3.82189 17.0908V17.2125L12.5421 12.8746C11.7715 11.8606 10.5866 11.3534 8.98561 11.3534Z" fill="#FF5685"/>
<path d="M24.4457 11.3191C23.9875 11.3191 23.6034 11.4915 23.2917 11.8377C22.9795 12.1944 22.8237 12.6206 22.8237 13.1169C22.8237 13.8073 23.1245 14.326 23.7281 14.6715C23.9359 14.7984 24.8038 15.0865 26.3324 15.5357C27.5707 15.9274 28.4912 16.4408 29.094 17.0742C29.957 17.9839 30.3888 19.2798 30.3888 20.9623C30.3888 22.6215 29.8583 24.0446 28.797 25.2314C27.7265 26.4053 26.4419 26.9931 24.9442 26.9931H20.8741C20.3636 26.9931 19.9223 26.7863 19.5484 26.3709C19.1735 25.9794 18.9863 25.49 18.9863 24.9022V24.8674C18.9863 24.2914 19.1731 23.7961 19.5484 23.3814C19.9223 22.967 20.3636 22.7598 20.8741 22.7598H25.1008C25.5582 22.7598 25.943 22.5864 26.2551 22.2412C26.5676 21.8956 26.7235 21.4691 26.7235 20.962C26.7235 20.3282 26.4265 19.8499 25.8342 19.5277C25.6787 19.447 24.8041 19.1589 23.2141 18.6642C21.9758 18.2603 21.0553 17.7305 20.4521 17.0742C19.5891 16.1405 19.1584 14.822 19.1584 13.1169C19.1584 11.4578 19.6885 10.0398 20.7491 8.86524C21.8199 7.67883 23.1049 7.08545 24.6019 7.08545H27.472C27.9912 7.08545 28.4389 7.29228 28.8135 7.70734C29.1884 8.12239 29.3756 8.61774 29.3756 9.19339V9.22781C29.3756 9.81528 29.1884 10.3058 28.8135 10.6968C28.4389 11.1115 27.9916 11.3191 27.472 11.3191H24.4457Z" fill="#FF5685"/>
<path d="M43.3414 7.55209C44.225 7.86321 44.6681 8.53132 44.6681 9.55714V9.643C44.6681 10.3459 44.4125 10.9045 43.9031 11.3192C43.5489 11.5956 43.1851 11.7336 42.8112 11.7336C42.6132 11.7336 42.4103 11.6991 42.2035 11.6296C41.693 11.4461 41.1675 11.3533 40.6275 11.3533C39.1916 11.3533 37.9708 11.9122 36.9618 13.0298C35.9637 14.1474 35.4638 15.5003 35.4638 17.0907C35.4638 18.6692 35.9637 20.0173 36.9618 21.1345C37.9708 22.2531 39.1916 22.8114 40.6275 22.8114C41.1675 22.8114 41.693 22.7193 42.2035 22.534C42.4005 22.4652 42.5985 22.4311 42.7954 22.4311C43.1802 22.4311 43.5492 22.5691 43.9035 22.8455C44.4129 23.2602 44.6685 23.8247 44.6685 24.5391C44.6685 25.5531 44.2254 26.2212 43.3417 26.5438C42.4682 26.8434 41.5638 26.9929 40.6278 26.9929C38.1527 26.9929 36.036 26.0199 34.2785 24.0726C32.5217 22.1259 31.6426 19.7819 31.6426 17.0396C31.6426 14.2972 32.5213 11.9526 34.2785 10.0059C36.036 8.05891 38.1527 7.08594 40.6278 7.08594C41.5635 7.08559 42.4675 7.24132 43.3414 7.55209Z" fill="#FF5685"/>
<path d="M53.5146 7.08545C55.9893 7.08545 58.1057 8.05877 59.8632 10.0054C61.62 11.9524 62.4995 14.2968 62.4995 17.0391C62.4995 19.7814 61.62 22.1258 59.8632 24.0721C58.106 26.0198 55.9897 26.9924 53.5146 26.9924C51.0387 26.9924 48.9231 26.0194 47.1652 24.0721C45.4084 22.1254 44.5293 19.7814 44.5293 17.0391C44.5293 14.2968 45.4081 11.9521 47.1652 10.0054C48.9231 8.05877 51.0387 7.08545 53.5146 7.08545ZM53.5146 11.3535C52.0786 11.3535 50.8579 11.9125 49.8489 13.03C48.8504 14.1476 48.3512 15.5005 48.3512 17.0909C48.3512 18.6694 48.8504 20.0175 49.8489 21.1347C50.8579 22.2533 52.0786 22.8116 53.5146 22.8116C54.9386 22.8116 56.1551 22.2533 57.1644 21.1347C58.1734 20.0175 58.6783 18.6694 58.6783 17.0909C58.6783 15.5009 58.1734 14.1476 57.1644 13.03C56.1554 11.9125 54.9386 11.3535 53.5146 11.3535Z" fill="#FF5685"/>
<path d="M67.4215 24.9022C67.4215 25.4897 67.2344 25.9794 66.8601 26.3709C66.4859 26.7863 66.0431 26.9931 65.5341 26.9931H65.487C64.978 26.9931 64.5359 26.7863 64.1613 26.3709C63.7874 25.9794 63.5996 25.49 63.5996 24.9022V15.4494C63.5996 13.1451 64.3383 11.1755 65.8153 9.53893C67.2912 7.9034 69.0702 7.08545 71.1496 7.08545C73.2189 7.08545 74.9922 7.9034 76.4692 9.53893C77.9456 11.1755 78.6839 13.1451 78.6839 15.4494V24.9022C78.6839 25.4897 78.4964 25.9794 78.1232 26.3709C77.7686 26.7863 77.3266 26.9931 76.7972 26.9931H76.7652C76.2453 26.9931 75.7983 26.7863 75.4244 26.3709C75.0491 25.9794 74.8623 25.49 74.8623 24.9022V15.4494C74.8623 14.3089 74.5035 13.3359 73.7852 12.5291C73.0574 11.7233 72.179 11.3194 71.1496 11.3194C70.1101 11.3194 69.2257 11.7233 68.4986 12.5291C67.78 13.3359 67.4215 14.3089 67.4215 15.4494V24.9022Z" fill="#FF5685"/>
<path d="M95.8672 0C96.377 0 96.8187 0.201967 97.1933 0.60416C97.5668 1.01956 97.7553 1.51456 97.7553 2.09091V17.0906C97.7445 19.8326 96.8601 22.1658 95.1036 24.0898C93.3457 26.0246 91.2347 26.9931 88.7701 26.9931C86.2942 26.9931 84.1783 26.0201 82.4207 24.0728C80.6639 22.1261 79.7852 19.7821 79.7852 17.0398C79.7852 14.2975 80.6639 11.9528 82.4207 10.0061C84.1786 8.05914 86.2946 7.08616 88.7701 7.08616C91.0268 7.08616 92.7475 7.6625 93.9338 8.81381V2.09161C93.9338 1.51526 94.1202 1.02025 94.4945 0.604849C94.8687 0.202309 95.3104 0.000689547 95.8205 0.000689547H95.8672V0ZM85.1044 13.0301C84.1063 14.1476 83.6067 15.5006 83.6067 17.0909C83.6067 18.6694 84.1063 20.0175 85.1044 21.1347C86.1134 22.2534 87.3341 22.8116 88.7701 22.8116C90.1941 22.8116 91.4109 22.2534 92.4199 21.1347C93.4286 20.0175 93.9341 18.6694 93.9341 17.0909C93.9341 15.5009 93.4289 14.1476 92.4199 13.0301C91.4109 11.9125 90.1941 11.3535 88.7701 11.3535C87.3341 11.3535 86.1131 11.9125 85.1044 13.0301Z" fill="#FF5685"/>
<path d="M101.822 4.83873C101.219 4.83873 100.704 4.6027 100.278 4.13029C99.8511 3.65823 99.6387 3.08709 99.6387 2.41897C99.6387 1.76198 99.8511 1.1978 100.278 0.725392C100.705 0.253329 101.219 0.0166016 101.822 0.0166016C102.415 0.0166016 102.924 0.253329 103.351 0.725392C103.788 1.18668 104.006 1.7512 104.006 2.41897C104.006 3.09926 103.788 3.669 103.351 4.13029C102.924 4.6027 102.415 4.83873 101.822 4.83873ZM101.838 7.08538C102.368 7.08538 102.81 7.29221 103.163 7.70726C103.537 8.12232 103.725 8.61767 103.725 9.19332V24.9021C103.725 25.4896 103.538 25.9794 103.163 26.3708C102.81 26.7862 102.368 26.993 101.838 26.993H101.807C101.286 26.993 100.839 26.7862 100.465 26.3708C100.091 25.9794 99.903 25.4899 99.903 24.9021V9.19332C99.903 8.61767 100.09 8.12197 100.465 7.70726C100.839 7.29256 101.286 7.08538 101.807 7.08538H101.838Z" fill="#FF5685"/>
<path d="M121.499 0C122.007 0 122.449 0.201967 122.824 0.60416C123.198 1.01956 123.386 1.51456 123.386 2.09091V17.0906C123.376 19.8326 122.492 22.1658 120.734 24.0898C118.976 26.0246 116.866 26.9931 114.401 26.9931C111.926 26.9931 109.809 26.0201 108.052 24.0728C106.294 22.1261 105.416 19.7821 105.416 17.0398C105.416 14.2975 106.294 11.9528 108.052 10.0061C109.809 8.05914 111.926 7.08616 114.401 7.08616C116.657 7.08616 118.378 7.6625 119.564 8.81381V2.09161C119.564 1.51526 119.751 1.02025 120.126 0.604849C120.5 0.202309 120.942 0.000689547 121.452 0.000689547H121.499V0ZM110.735 13.0301C109.737 14.1476 109.238 15.5006 109.238 17.0909C109.238 18.6694 109.737 20.0175 110.735 21.1347C111.744 22.2534 112.966 22.8116 114.401 22.8116C115.825 22.8116 117.041 22.2534 118.051 21.1347C119.059 20.0175 119.564 18.6694 119.564 17.0909C119.564 15.5009 119.059 14.1476 118.051 13.0301C117.041 11.9125 115.824 11.3535 114.401 11.3535C112.966 11.3535 111.744 11.9125 110.735 13.0301Z" fill="#FF5685"/>
<path d="M127.455 4.83873C126.851 4.83873 126.336 4.6027 125.911 4.13029C125.484 3.65823 125.271 3.08709 125.271 2.41897C125.271 1.76198 125.484 1.1978 125.911 0.725392C126.336 0.253329 126.851 0.0166016 127.455 0.0166016C128.048 0.0166016 128.557 0.253329 128.983 0.725392C129.421 1.18668 129.638 1.7512 129.638 2.41897C129.638 3.09926 129.421 3.669 128.983 4.13029C128.557 4.6027 128.048 4.83873 127.455 4.83873ZM127.47 7.08538C128.001 7.08538 128.442 7.29221 128.796 7.70726C129.171 8.12232 129.357 8.61767 129.357 9.19332V24.9021C129.357 25.4896 129.171 25.9794 128.796 26.3708C128.442 26.7862 128.001 26.993 127.47 26.993H127.44C126.919 26.993 126.472 26.7862 126.097 26.3708C125.723 25.9794 125.536 25.4899 125.536 24.9021V9.19332C125.536 8.61767 125.723 8.12197 126.097 7.70726C126.472 7.29256 126.919 7.08538 127.44 7.08538H127.47Z" fill="#FF5685"/>
<path d="M135.103 24.9022C135.103 25.4897 134.915 25.9794 134.541 26.3709C134.168 26.7863 133.724 26.9931 133.215 26.9931H133.168C132.659 26.9931 132.217 26.7863 131.843 26.3709C131.469 25.9794 131.281 25.49 131.281 24.9022V15.4494C131.281 13.1451 132.02 11.1755 133.496 9.53893C134.973 7.9034 136.751 7.08545 138.831 7.08545C140.9 7.08545 142.673 7.9034 144.15 9.53893C145.626 11.1755 146.365 13.1451 146.365 15.4494V24.9022C146.365 25.4897 146.177 25.9794 145.803 26.3709C145.449 26.7863 145.007 26.9931 144.477 26.9931H144.445C143.926 26.9931 143.479 26.7863 143.104 26.3709C142.731 25.9794 142.543 25.49 142.543 24.9022V15.4494C142.543 14.3089 142.185 13.3359 141.467 12.5291C140.739 11.7233 139.86 11.3194 138.831 11.3194C137.791 11.3194 136.907 11.7233 136.179 12.5291C135.461 13.3359 135.103 14.3089 135.103 15.4494V24.9022Z" fill="#FF5685"/>
<path d="M150.27 0C150.779 0 151.222 0.201967 151.596 0.60416C151.97 1.01956 152.158 1.51456 152.158 2.09091V8.10537C152.98 7.42508 154.222 7.08546 155.886 7.08546C157.955 7.08546 159.728 7.90341 161.205 9.53894C162.681 11.1755 163.42 13.1451 163.42 15.4495V24.9022C163.42 25.4897 163.232 25.9795 162.858 26.3709C162.504 26.7863 162.062 26.9931 161.532 26.9931H161.5C160.981 26.9931 160.533 26.7863 160.159 26.3709C159.785 25.9795 159.598 25.49 159.598 24.9022V15.4495C159.598 14.3089 159.239 13.336 158.523 12.5291C157.793 11.7234 156.915 11.3194 155.886 11.3194C154.846 11.3194 153.962 11.7234 153.234 12.5291C152.516 13.336 152.158 14.3089 152.158 15.4495V24.9022C152.158 25.4897 151.97 25.9795 151.596 26.3709C151.222 26.7863 150.779 26.9931 150.27 26.9931H150.223C149.713 26.9931 149.271 26.7863 148.897 26.3709C148.523 25.9795 148.336 25.49 148.336 24.9022V2.09091C148.336 1.51456 148.523 1.01956 148.897 0.60416C149.271 0.20162 149.713 0 150.223 0H150.27Z" fill="#FF5685"/>
<path d="M178.137 4.67578C171.045 4.67578 165.295 10.3691 165.295 17.3919C165.295 19.3351 165.735 21.1761 166.522 22.8231C166.527 22.7963 166.531 22.7706 166.537 22.7439C166.537 22.7439 166.973 24.223 168.337 23.3226C168.337 23.3226 170.48 22.0055 170.286 23.1871C170.291 23.3171 170.291 23.4478 170.291 23.5774C170.294 23.852 170.306 24.126 170.315 24.3999C170.326 24.7249 170.343 25.0555 170.374 25.3784C170.402 25.6645 170.414 25.9638 170.486 26.2409C170.512 26.3413 170.52 26.4449 170.545 26.5447C170.553 26.5867 170.574 26.6205 170.606 26.65C170.701 26.7327 170.818 26.8468 170.931 26.8993C171.202 27.0216 171.517 26.885 171.746 26.7425C171.746 26.7425 172.633 24.5143 173.344 24.8188C174.052 25.1226 175.052 27.2882 175.753 26.9448C175.765 26.9389 175.78 26.8968 175.786 26.8864C175.815 26.8339 175.845 26.7807 175.877 26.7289C176.066 26.4175 176.287 26.0987 176.564 25.8581C176.699 25.7417 176.855 25.6214 177.025 25.563C177.102 25.5366 177.182 25.5286 177.261 25.5515C177.318 25.5679 177.455 25.6245 177.485 25.6791C177.59 25.8741 177.625 26.0931 177.696 26.301C177.805 26.6208 177.91 26.9431 178.03 27.2601C178.168 27.6237 178.31 27.9859 178.474 28.3391C178.627 28.6669 178.788 28.9919 178.99 29.294C179.135 29.5123 179.305 29.7462 179.538 29.8808C179.538 29.8808 179.648 29.9506 179.811 30C180.091 29.9638 180.368 29.9183 180.642 29.8651C180.908 29.6538 181.149 29.2227 181.259 28.4017C181.259 28.4017 181.131 24.7364 182.499 24.3495C182.557 24.3356 182.617 24.3425 182.675 24.346C182.818 24.3554 182.938 24.3867 183.068 24.452C183.268 24.5528 183.441 24.6557 183.587 24.8288C183.802 25.0798 184.014 25.3294 184.144 25.6364C184.228 25.8376 184.281 26.0712 184.406 26.2523C184.494 26.3803 184.595 26.3646 184.715 26.2861C184.863 26.1894 184.983 26.0532 185.09 25.9152C185.323 25.6197 185.514 25.2929 185.699 24.9669C185.77 24.8393 185.839 24.7107 185.909 24.582C186.029 24.3568 186.142 24.1281 186.268 23.9049C186.332 23.7884 186.397 23.5062 186.549 23.4749C186.684 23.4474 186.858 23.534 186.992 23.5608C187.402 23.6449 187.814 23.7134 188.23 23.7436C189.211 23.8156 189.456 23.4415 189.838 22.6326C190.02 22.2454 190.18 21.847 190.318 21.4417C190.599 20.613 190.796 19.755 190.89 18.8853C190.944 18.3917 190.981 17.888 190.981 17.3909C190.981 10.369 185.23 4.67578 178.137 4.67578ZM181.789 21.3906C180.779 22.5089 179.562 23.0671 178.138 23.0671C176.703 23.0671 175.482 22.5089 174.472 21.3906C173.475 20.2733 172.975 18.9253 172.975 17.3471C172.975 15.7571 173.475 14.4038 174.472 13.2855C175.482 12.1683 176.703 11.6093 178.138 11.6093C179.562 11.6093 180.779 12.1683 181.789 13.2855C182.796 14.4038 183.302 15.7568 183.302 17.3471C183.302 18.9253 182.796 20.2733 181.789 21.3906Z" fill="#5B4132"/>
</svg>
