<svg width="28" height="28" viewBox="0 0 28 28" fill="none" xmlns="http://www.w3.org/2000/svg">
<path fill-rule="evenodd" clip-rule="evenodd" d="M14 14.0002C17.2227 14.0002 19.8333 11.3895 19.8333 8.16683C19.8333 4.94416 17.2227 2.3335 14 2.3335C10.7773 2.3335 8.16667 4.94416 8.16667 8.16683C8.16667 11.3895 10.7773 14.0002 14 14.0002ZM14 4.66683C15.934 4.66683 17.5 6.23283 17.5 8.16683C17.5 10.1008 15.934 11.6668 14 11.6668C12.066 11.6668 10.5 10.1008 10.5 8.16683C10.5 6.23283 12.066 4.66683 14 4.66683ZM24.5 24.5002C24.5 25.1445 23.9777 25.6668 23.3333 25.6668C22.689 25.6668 22.1667 25.1445 22.1667 24.5002V22.1668C22.1667 20.4634 17.682 18.6668 14 18.6668C10.318 18.6668 5.83333 20.4634 5.83333 22.1668L5.83333 24.5002C5.83333 25.1445 5.311 25.6668 4.66667 25.6668C4.02234 25.6668 3.5 25.1445 3.5 24.5002V22.1668C3.5 18.5913 9.13614 16.3335 14 16.3335C18.8639 16.3335 24.5 18.5913 24.5 22.1668V24.5002Z" fill="#FF5685"/>
<mask id="mask0_711_7030" style="mask-type:luminance" maskUnits="userSpaceOnUse" x="3" y="2" width="22" height="24">
<path fill-rule="evenodd" clip-rule="evenodd" d="M14 14.0002C17.2227 14.0002 19.8333 11.3895 19.8333 8.16683C19.8333 4.94416 17.2227 2.3335 14 2.3335C10.7773 2.3335 8.16667 4.94416 8.16667 8.16683C8.16667 11.3895 10.7773 14.0002 14 14.0002ZM14 4.66683C15.934 4.66683 17.5 6.23283 17.5 8.16683C17.5 10.1008 15.934 11.6668 14 11.6668C12.066 11.6668 10.5 10.1008 10.5 8.16683C10.5 6.23283 12.066 4.66683 14 4.66683ZM24.5 24.5002C24.5 25.1445 23.9777 25.6668 23.3333 25.6668C22.689 25.6668 22.1667 25.1445 22.1667 24.5002V22.1668C22.1667 20.4634 17.682 18.6668 14 18.6668C10.318 18.6668 5.83333 20.4634 5.83333 22.1668L5.83333 24.5002C5.83333 25.1445 5.311 25.6668 4.66667 25.6668C4.02234 25.6668 3.5 25.1445 3.5 24.5002V22.1668C3.5 18.5913 9.13614 16.3335 14 16.3335C18.8639 16.3335 24.5 18.5913 24.5 22.1668V24.5002Z" fill="white"/>
</mask>
<g mask="url(#mask0_711_7030)">
<rect width="28" height="28" fill="#FF5685"/>
</g>
</svg>
